<svg height="512" viewBox="0 0 512 512" width="512" xmlns="http://www.w3.org/2000/svg"><g id="Flat"><path d="m488 272.55a31.445 31.445 0 0 1 -31.45 31.45h-328.55l-104-48v-48h392.28a31.429 31.429 0 0 1 25.15 12.58l8.57 11.42 6 8 8.18 2.05a31.416 31.416 0 0 1 23.82 30.5z" fill="#348fd9"/><path d="m58.67 272h397.88a31.457 31.457 0 0 0 27.08-15.45 31.451 31.451 0 0 1 -27.08 47.45h-328.55z" fill="#3086cd"/><path d="m176 416h72v48h-72z" fill="#34507b"/><path d="m232 336h72v48h-72z" fill="#34507b"/><path d="m184 488h-56l80-184h104z" fill="#4db7e5"/><path d="m176 48h72v48h-72z" fill="#34507b"/><path d="m232 128h72v48h-72z" fill="#34507b"/><circle cx="248" cy="440" fill="#3086cd" r="24"/><circle cx="304" cy="360" fill="#3086cd" r="24"/><circle cx="248" cy="72" fill="#3086cd" r="24"/><circle cx="304" cy="152" fill="#3086cd" r="24"/><path d="m184 24h-56l80 184h104z" fill="#4db7e5"/><path d="m56 128h-32v80h72z" fill="#f35244"/><g fill="#4db7e5"><path d="m476.2 248h-68.2v-16h42l6 8 8.18 2.05a31.479 31.479 0 0 1 12.02 5.95z"/><path d="m376 232h16v16h-16z"/><path d="m344 232h16v16h-16z"/><path d="m312 232h16v16h-16z"/><path d="m280 232h16v16h-16z"/><path d="m248 232h16v16h-16z"/><path d="m216 232h16v16h-16z"/><path d="m184 232h16v16h-16z"/><path d="m152 232h16v16h-16z"/><path d="m120 232h16v16h-16z"/><path d="m88 232h16v16h-16z"/></g></g></svg>