<svg height="512pt" viewBox="-25 0 512 512.00107" width="512pt" xmlns="http://www.w3.org/2000/svg"><path d="m208.433594 130.710938c1.753906-2.207032 4.78125-3.003907 6.8125-4.960938 4.957031-4.78125 1.332031-13.667969-4.527344-17.292969-5.855469-3.625-13.097656-4.199219-19.394531-7.003906-6.292969-2.800781-11.980469-9.761719-9.320313-16.105469 3.90625-8.40625 10.203125-7.4375 12.140625-13.539062 1.933594-6.105469-4.742187-12.433594.03125-22.039063 4.773438-9.605469 17.46875-19.03125 13.140625-29.078125-3.660156-7.128906-13.484375-8.226562-21.375-6.753906s-15.972656 4.566406-23.703125 2.394531c-6.554687-1.84375-11.488281-7.140625-17.445312-10.433593-16.789063-9.285157-54.957031-8.015626-54.957031 6.710937 0 21.210937 9.691406 24.21875 11.835937 30.128906 5.367187 14.769531 10.714844 31.289063 4.523437 45.734375-2.625 6.132813-7.125 11.246094-11.546874 16.246094l-35.003907 39.5625c-.738281.835938-1.878906 1.183594-2.960937.917969-11.789063-2.886719-25.421875 5.777343-27.304688 17.863281-2.179687 13.957031 1.21875 21.917969-3.027344 30.925781-4.246093 9.011719-26.351562 21.589844-26.351562 30.304688 0 29.246093 57.234375 37.460937 60.929688 51.300781 3.242187 18.96875 6.488281 37.9375 9.734374 56.90625 6.878907 40.207031 4.511719 29.476562 56.683594 169.710938 3.992188 10.726562 9.683594 13.148437 17.769532 4.714843 19.242187-20.070312 39.351562-41.78125 44.402343-69.089843 2.445313-13.234376 1.125-26.929688 3.34375-40.203126 2.214844-13.277343 9.289063-27.132812 22.042969-31.523437 5.457031-1.875 11.605469-1.898437 16.507812-4.929687 4.714844-2.917969 7.429688-8.089844 10.292969-12.832032 11.746094-19.421875 29.59375-35.113281 50.390625-44.289062 3.648438-1.609375 7.605469-3.195313 9.847656-6.488282 2.328126-3.417968 2.257813-7.886718 3.613282-11.792968 3.382812-9.722656 17.050781-13.65625 25.4375-8.082032 1.226562.816407 2.859375.667969 3.875-.398437 4.09375-4.292969 7.515625-9.222656 10.105468-14.550781.53125-1.09375.40625-2.410156-.394531-3.328125-12.914062-14.792969-15.503906-35.375-11.464843-38.730469 6.175781-5.132812 35-4.105469 31.910156 3.082031-5.988282 13.933594 17.894531 13.761719 17.5 34.90625-.152344 8.066407 12.414062 28.03125 23.707031 19.664063 11.292969-8.367188 10.121094-38.84375 19.714844-56.617188 16.160156-29.929687 22.066406-43.332031 34.339843-51.652344 4.476563-3.035156-.140624-47.875-10.128906-49.964843-9.988281-2.089844-72.78125 23.578125-75.871094 26.65625-3.085937 3.082031-3.066406 14.453125-5.648437 15.953125-2.585937 1.503906-20.148437 5.042968-25.265625 3.273437-5.113281-1.773437-12.578125-17.84375-23.769531-14.941406-11.195313 2.902344-7.078125 21.382813-11.195313 23.4375-4.117187 2.050781-30.207031 2.464844-44.570312-6.238281-3.589844-2.175782-7.132813-4.6875-11.253906-5.519532-4.042969-.816406-8.210938.070313-12.332032.160157-10.84375.242187-43.171875-17.878907-31.820312-32.175781zm0 0" fill="#58c748"/><path d="m333.113281 220.683594c.015625-.011719.035157-.023438.050781-.035156-5.109374-4.238282-25.855468-4.226563-30.988281.035156-4.164062 3.464844-1.273437 25.285156 12.75 40.144531-3.042969 6.90625-7.46875 13.203125-12.9375 18.414063-8.03125-7.722657-23.710937-3.976563-27.367187 6.535156-1.355469 3.90625-1.289063 8.371094-3.617188 11.792968-2.238281 3.292969-6.195312 4.878907-9.84375 6.488282-20.796875 9.175781-38.648437 24.867187-50.390625 44.289062-2.863281 4.742188-5.578125 9.910156-10.292969 12.828125-4.902343 3.035157-11.054687 3.054688-16.507812 4.933594-12.753906 4.386719-19.828125 18.246094-22.042969 31.523437-2.21875 13.273438-.898437 26.964844-3.34375 40.199219-4.113281 22.246094-18.21875 40.773438-33.707031 57.730469.808594 2.175781 1.632812 4.390625 2.472656 6.644531 3.992188 10.730469 9.683594 13.152344 17.769532 4.71875 19.242187-20.070312 39.351562-41.78125 44.402343-69.09375 2.445313-13.234375 1.125-26.925781 3.34375-40.199219 2.214844-13.277343 9.289063-27.132812 22.042969-31.523437 5.457031-1.878906 11.605469-1.898437 16.507812-4.933594 4.714844-2.917969 7.429688-8.085937 10.292969-12.828125 11.746094-19.421875 29.59375-35.113281 50.390625-44.289062 3.648438-1.609375 7.605469-3.195313 9.847656-6.488282 2.328126-3.421874 2.257813-7.886718 3.613282-11.792968 3.382812-9.722656 17.050781-13.65625 25.4375-8.082032 1.226562.816407 2.859375.667969 3.875-.398437 4.09375-4.296875 7.515625-9.222656 10.105468-14.550781.53125-1.09375.40625-2.414063-.394531-3.328125-12.917969-14.796875-15.503906-35.378907-11.46875-38.734375zm0 0" fill="#51b842"/><path d="m460.289062 170.074219c-7.734374 5.230469-12.933593 12.496093-19.78125 24.628906h-414.519531c.125-.234375.246094-.472656.359375-.710937 4.25-9.011719.847656-16.976563 3.035156-30.933594 1.878907-12.085938 15.507813-20.75 27.304688-17.863282 1.082031.265626 2.222656-.082031 2.960938-.917968 11.667968-13.183594 23.332031-26.371094 35-39.558594 4.425781-4.996094 8.921874-10.117188 11.550781-16.246094 6.1875-14.441406.84375-30.964844-4.527344-45.730468-2.144531-5.914063-11.839844-8.921876-11.839844-30.132813 0-14.71875 38.167969-16 54.964844-6.707031 5.953125 3.289062 10.890625 8.59375 17.441406 10.425781 7.730469 2.175781 15.816407-.917969 23.707031-2.390625 7.886719-1.472656 17.714844-.371094 21.378907 6.757812 4.320312 10.046876-8.375 19.472657-13.148438 29.074219-4.777343 9.613281 1.90625 15.9375-.03125 22.046875-1.941406 6.097656-8.230469 5.128906-12.140625 13.535156-2.660156 6.335938 3.023438 13.300782 9.324219 16.101563 6.292969 2.804687 13.53125 3.378906 19.398437 7.003906 5.855469 3.628907 9.476563 12.519531 4.515626 17.289063-2.03125 1.96875-5.050782 2.761718-6.804688 4.964844-11.355469 14.296874 20.976562 32.417968 31.8125 32.171874 4.125-.09375 8.292969-.980468 12.335938-.15625 4.125.835938 7.660156 3.339844 11.261718 5.523438 14.355469 8.695312 40.445313 8.28125 44.558594 6.234375 4.125-2.050781 0-20.53125 11.199219-23.4375 11.1875-2.90625 18.65625 13.164063 23.769531 14.9375 5.117188 1.773437 22.675781-1.773437 25.265625-3.265625 2.578125-1.503906 2.558594-12.878906 5.652344-15.957031 3.082031-3.082031 65.875-28.753907 75.867187-26.664063 9.984375 2.09375 14.605469 46.9375 10.128906 49.976563zm0 0" fill="#ffb300"/><path d="m176.386719 20.695312c4.320312 10.042969-8.375 19.46875-13.148438 29.074219-4.777343 9.609375 1.90625 15.933594-.03125 22.042969-1.941406 6.101562-8.230469 5.132812-12.136719 13.539062-2.664062 6.335938 3.019532 13.300782 9.320313 16.101563 6.292969 2.800781 13.53125 3.378906 19.398437 7.003906 5.859376 3.625 9.476563 12.519531 4.515626 17.285157-2.03125 1.96875-5.050782 2.761718-6.804688 4.964843-11.351562 14.300781 20.976562 32.421875 31.816406 32.175781 4.125-.09375 8.289063-.980468 12.332032-.15625 4.125.835938 7.660156 3.339844 11.261718 5.523438 14.355469 8.695312 40.445313 8.28125 44.558594 6.230469.335938-.164063.613281-.453125.851562-.820313-5.257812-1.171875-10.351562-2.914062-14.472656-5.410156-3.601562-2.183594-7.136718-4.6875-11.261718-5.523438-4.042969-.824218-8.210938.0625-12.335938.15625-10.835938.246094-43.167969-17.875-31.8125-32.175781 1.753906-2.203125 4.773438-2.996093 6.804688-4.964843 4.960937-4.769532 1.34375-13.660157-4.515626-17.285157-5.867187-3.625-13.105468-4.203125-19.398437-7.003906-6.300781-2.800781-11.984375-9.765625-9.324219-16.101563 3.910156-8.40625 10.199219-7.4375 12.140625-13.539062 1.9375-6.109375-4.746093-12.433594.03125-22.042969 4.773438-9.601562 17.46875-19.027343 13.148438-29.074219-3.664063-7.128906-13.492188-8.230468-21.378907-6.757812-4.3125.804688-8.679687 2.089844-13.019531 2.738281 1.417969 1.046875 2.609375 2.363281 3.460938 4.019531zm0 0" fill="#ffa000"/><path d="m450.160156 120.097656c-3.539062-.742187-13.699218 2.003906-25.488281 5.992188 6.050781 12.789062 8.234375 41.570312 4.679687 43.984375-7.734374 5.230469-12.933593 12.496093-19.78125 24.628906h30.9375c6.847657-12.132813 12.046876-19.394531 19.78125-24.628906 4.476563-3.039063-.144531-47.882813-10.128906-49.976563zm0 0" fill="#ffa000"/><path d="m440.507812 194.703125c-4.011718 7.128906-8.578124 15.949219-14.558593 27.023437-9.589844 17.769532-8.425781 48.242188-19.71875 56.605469-11.289063 8.375-23.851563-11.597656-23.707031-19.652343.402343-21.152344-23.480469-20.976563-17.5-34.914063 3.09375-7.191406-25.730469-8.210937-31.90625-3.082031-4.035157 3.355468-1.453126 23.9375 11.464843 38.734375.800781.917969.925781 2.234375.390625 3.328125-2.585937 5.328125-6.007812 10.25-10.09375 14.546875-1.019531 1.066406-2.652344 1.214843-3.878906.398437-8.390625-5.578125-22.0625-1.636718-25.4375 8.082032-1.363281 3.914062-1.289062 8.375-3.621094 11.792968-2.238281 3.296875-6.199218 4.882813-9.835937 6.492188-20.800781 9.179687-38.652344 24.867187-50.398438 44.289062-1 1.65625-1.980469 3.355469-3.042969 5.003906h-164.21875c-1.257812-5.933593-2.308593-12.214843-3.785156-20.851562-3.238281-18.972656-6.484375-37.941406-9.734375-56.90625-3.691406-13.835938-60.925781-22.054688-60.925781-51.304688 0-8.488281 20.976562-20.644531 25.988281-29.585937zm0 0" fill="#f5f5f5"/><path d="m333.113281 220.683594c.015625-.011719.035157-.023438.050781-.035156-5.105468-4.238282-25.855468-4.226563-30.988281.035156-4.164062 3.460937-1.277343 25.28125 12.746094 40.148437-3.039063 6.902344-7.464844 13.195313-12.929687 18.40625-8.035157-7.722656-23.71875-3.972656-27.371094 6.53125-1.359375 3.917969-1.289063 8.375-3.617188 11.796875-2.238281 3.296875-6.199218 4.882813-9.839844 6.492188-20.800781 9.175781-38.652343 24.867187-50.398437 44.285156-1 1.660156-1.976563 3.359375-3.039063 5.007812h30.9375c1.0625-1.648437 2.042969-3.347656 3.042969-5.007812 11.746094-19.417969 29.59375-35.109375 50.394531-44.285156 3.640626-1.609375 7.601563-3.195313 9.839844-6.492188 2.332032-3.417968 2.257813-7.878906 3.617188-11.796875 3.378906-9.71875 17.050781-13.65625 25.441406-8.078125 1.226562.816406 2.859375.667969 3.875-.402344 4.089844-4.292968 7.507812-9.214843 10.097656-14.542968.53125-1.09375.40625-2.414063-.394531-3.328125-12.914063-14.796875-15.5-35.378907-11.464844-38.734375zm0 0" fill="#ebe3d4"/><path d="m409.570312 194.703125c-4.011718 7.128906-8.578124 15.949219-14.558593 27.023437-6.320313 11.707032-7.972657 28.925782-11.589844 41.707032 3.050781 9.097656 13.371094 21.902344 22.808594 14.902344 11.292969-8.367188 10.128906-38.839844 19.71875-56.609376 5.980469-11.074218 10.546875-19.894531 14.558593-27.023437zm0 0" fill="#ebe3d4"/><g fill="#03a9f4"><path d="m164.039062 218.625c-28.5625 0-51.796874 23.234375-51.796874 51.796875s23.234374 51.800781 51.796874 51.800781 51.796876-23.238281 51.796876-51.800781-23.234376-51.796875-51.796876-51.796875zm0 88.59375c-20.292968 0-36.796874-16.503906-36.796874-36.796875 0-20.289063 16.503906-36.796875 36.796874-36.796875 20.289063 0 36.796876 16.507812 36.796876 36.796875 0 20.292969-16.507813 36.796875-36.796876 36.796875zm0 0"/><path d="m184.484375 262.921875h-2.339844l1.652344-1.652344c2.929687-2.929687 2.929687-7.679687 0-10.605469-2.925781-2.929687-7.675781-2.929687-10.605469 0l-1.652344 1.652344v-2.339844c0-4.140624-3.359374-7.5-7.5-7.5-4.140624 0-7.5 3.359376-7.5 7.5v2.339844l-1.65625-1.652344c-2.925781-2.929687-7.675781-2.929687-10.605468 0-2.929688 2.929688-2.929688 7.675782 0 10.605469l1.652344 1.652344h-2.335938c-4.140625 0-7.5 3.359375-7.5 7.5s3.359375 7.5 7.5 7.5h2.335938l-1.652344 1.652344c-2.929688 2.929687-2.929688 7.679687 0 10.609375 1.464844 1.464844 3.382812 2.195312 5.304687 2.195312 1.917969 0 3.835938-.730468 5.300781-2.195312l1.65625-1.65625v2.339844c0 4.140624 3.355469 7.5 7.5 7.5 4.140626 0 7.5-3.359376 7.5-7.5v-2.339844l1.652344 1.65625c1.464844 1.460937 3.382813 2.195312 5.304688 2.195312 1.917968 0 3.835937-.730468 5.300781-2.195312 2.929687-2.929688 2.929687-7.679688 0-10.609375l-1.652344-1.652344h2.339844c4.140625 0 7.5-3.359375 7.5-7.5s-3.359375-7.5-7.5-7.5zm0 0"/></g></svg>